<svg width="70" height="66" viewBox="0 0 70 66" fill="none" xmlns="http://www.w3.org/2000/svg">
<rect y="0.450089" width="70" height="64.7251" rx="15" fill="#149211" fill-opacity="0.28"/>
<path d="M34.5729 43.8698C34.4521 43.8697 34.3323 43.8501 34.2188 43.812C33.9997 43.7379 33.814 43.5979 33.6912 43.4145C33.5684 43.2312 33.5158 43.015 33.5417 42.8007L34.3438 35.9718H28.2083C28.0191 35.9721 27.8334 35.9247 27.6711 35.8347C27.5088 35.7447 27.376 35.6155 27.2872 35.4611C27.1983 35.3066 27.1566 35.1326 27.1665 34.9579C27.1765 34.7832 27.2378 34.6142 27.3438 34.4693L35.5625 23.1039C35.6925 22.926 35.883 22.7934 36.1038 22.7271C36.3246 22.6608 36.563 22.6646 36.7813 22.7379C36.991 22.8099 37.1701 22.9424 37.2921 23.1159C37.414 23.2894 37.4723 23.4945 37.4583 23.701L36.6563 30.5781H42.7917C42.9809 30.5778 43.1666 30.6252 43.3289 30.7152C43.4912 30.8052 43.624 30.9344 43.7128 31.0888C43.8017 31.2433 43.8434 31.4173 43.8335 31.592C43.8235 31.7667 43.7622 31.9356 43.6563 32.0806L35.4375 43.446C35.342 43.5767 35.2131 43.6837 35.0624 43.7576C34.9116 43.8315 34.7435 43.8701 34.5729 43.8698ZM30.1563 34.0455H35.5C35.6454 34.0458 35.789 34.0742 35.9218 34.129C36.0546 34.1837 36.1734 34.2636 36.2708 34.3633C36.3691 34.4645 36.4432 34.5837 36.488 34.7132C36.5329 34.8427 36.5477 34.9795 36.5313 35.1146L36.0625 39.1118L40.8438 32.5044H35.5C35.353 32.5052 35.2075 32.4773 35.073 32.4224C34.9385 32.3675 34.8182 32.2869 34.7198 32.1859C34.6214 32.085 34.5472 31.9659 34.5022 31.8365C34.4571 31.7071 34.4422 31.5704 34.4583 31.4353L34.9271 27.4381L30.1563 34.0455Z" fill="#149211"/>
</svg>
