<svg width="70" height="66" viewBox="0 0 70 66" fill="none" xmlns="http://www.w3.org/2000/svg">
<rect y="0.450089" width="70" height="64.7251" rx="15" fill="#F25822" fill-opacity="0.25"/>
<path d="M23.7778 24.2854V42.2645H46V24.2854H23.7778ZM22.3889 21.7169H47.3889C47.7572 21.7169 48.1105 21.8522 48.371 22.093C48.6314 22.3339 48.7778 22.6605 48.7778 23.0011V43.5488C48.7778 43.8894 48.6314 44.216 48.371 44.4569C48.1105 44.6977 47.7572 44.833 47.3889 44.833H22.3889C22.0205 44.833 21.6673 44.6977 21.4068 44.4569C21.1463 44.216 21 43.8894 21 43.5488V23.0011C21 22.6605 21.1463 22.3339 21.4068 22.093C21.6673 21.8522 22.0205 21.7169 22.3889 21.7169ZM38.7681 30.4407L36.2778 28.138H43.2222V34.5592L40.7319 32.2566L35.3653 37.2188L32.4194 34.495L28.4903 38.1268L26.5264 36.3109L32.4194 30.8619L35.3653 33.587L38.7681 30.4407Z" fill="#F25822"/>
</svg>
