<svg width="70" height="66" viewBox="0 0 70 66" fill="none" xmlns="http://www.w3.org/2000/svg">
<rect y="0.450089" width="70" height="64.7251" rx="15" fill="#FFCD1D" fill-opacity="0.24"/>
<path d="M36.4063 42.9067C35.9032 42.9061 35.4206 42.7228 35.0625 42.3962L28.3854 36.2126C28.2141 36.0551 28.1073 35.8474 28.0833 35.6251L27.1667 26.6195C27.1526 26.4784 27.1724 26.3362 27.2247 26.203C27.2769 26.0698 27.3602 25.9489 27.4688 25.8489C27.5769 25.7486 27.7076 25.6715 27.8517 25.6232C27.9957 25.5749 28.1495 25.5566 28.3021 25.5696L38.0417 26.4172C38.2821 26.4393 38.5067 26.5381 38.6771 26.6965L45.3646 32.8704C45.7189 33.199 45.9179 33.6441 45.9179 34.1081C45.9179 34.5721 45.7189 35.0172 45.3646 35.3458L37.7396 42.3962C37.3853 42.7222 36.9061 42.9057 36.4063 42.9067ZM30.1563 35.0954L36.4063 40.8744L43.75 34.084L37.5 28.305L29.3646 27.6019L30.1563 35.0954Z" fill="#FFC700"/>
<path d="M33.9375 33.275C34.8004 33.275 35.5 32.6281 35.5 31.8302C35.5 31.0323 34.8004 30.3855 33.9375 30.3855C33.0746 30.3855 32.375 31.0323 32.375 31.8302C32.375 32.6281 33.0746 33.275 33.9375 33.275Z" fill="#FFC700"/>
</svg>
